<?xml version="1.0" standalone="no"?><!DOCTYPE svg PUBLIC "-//W3C//DTD SVG 1.1//EN" "http://www.w3.org/Graphics/SVG/1.1/DTD/svg11.dtd">
<svg t="1748080604956" class="icon" viewBox="0 0 1024 1024" version="1.1" xmlns="http://www.w3.org/2000/svg" p-id="6438"
     width="200" height="200"><path d="M853.331769 725.330009m-127.999413 0a127.999413 127.999413 0 1 0 255.998826 0 127.999413 127.999413 0 1 0-255.998826 0Z" fill="#FFA600" p-id="6439"></path><path d="M725.332356 426.664711a298.665298 298.665298 0 1 1-31.146524 595.70927A40.959812 40.959812 0 0 1 682.665884 1023.995307h-213.332355a42.666471 42.666471 0 0 1 0-85.332943l47.061118 0.085333A298.665298 298.665298 0 0 1 725.332356 426.664711z m0 85.332942a213.332356 213.332356 0 1 0 0 426.664711 213.332356 213.332356 0 0 0 0-426.664711z m85.332942-511.997653a170.665884 170.665884 0 0 1 170.452552 162.13259L981.331182 170.665884v170.665885a42.666471 42.666471 0 0 1-85.034277 4.991977L895.99824 341.331769V170.665884a85.332942 85.332942 0 0 0-78.932972-85.119609L810.665298 85.332942H170.668231a85.332942 85.332942 0 0 0-85.11961 78.932972L85.335289 170.665884v511.997654a85.332942 85.332942 0 0 0 78.932971 85.11961L170.668231 767.99648h127.999413a42.666471 42.666471 0 0 1 4.991978 85.034277L298.667644 853.329422H170.668231a170.665884 170.665884 0 0 1-170.452552-162.13259L0.002347 682.663538V170.665884A170.665884 170.665884 0 0 1 162.134937 0.213332L170.668231 0h639.997067z m-170.665885 682.663538a42.666471 42.666471 0 1 1 0 85.332942 42.666471 42.666471 0 0 1 0-85.332942z m170.665885 0a42.666471 42.666471 0 1 1 0 85.332942 42.666471 42.666471 0 0 1 0-85.332942zM341.334116 426.664711a42.666471 42.666471 0 0 1 0 85.332942H256.001173a42.666471 42.666471 0 0 1 0-85.332942h85.332943z m383.99824-213.332355a42.666471 42.666471 0 0 1 0 85.332942H256.001173a42.666471 42.666471 0 1 1 0-85.332942h469.331183z" fill="#171A1D" p-id="6440"></path></svg>